<?xml version="1.0" encoding="UTF-8" standalone="no"?>
<!-- Uploaded to: SVG Repo, www.svgrepo.com, Generator: SVG Repo Mixer Tools -->

<svg
   width="800px"
   height="800px"
   viewBox="0 0 24 24"
   fill="none"
   version="1.1"
   id="svg704"
   sodipodi:docname="toRightArrow_icon"
   inkscape:version="1.2.2 (732a01da63, 2022-12-09, custom)"
   xmlns:inkscape="http://www.inkscape.org/namespaces/inkscape"
   xmlns:sodipodi="http://sodipodi.sourceforge.net/DTD/sodipodi-0.dtd"
   xmlns="http://www.w3.org/2000/svg"
   xmlns:svg="http://www.w3.org/2000/svg">
  <defs
     id="defs708" />
  <sodipodi:namedview
     id="namedview706"
     pagecolor="#ffffff"
     bordercolor="#000000"
     borderopacity="0.25"
     inkscape:showpageshadow="2"
     inkscape:pageopacity="0.0"
     inkscape:pagecheckerboard="0"
     inkscape:deskcolor="#d1d1d1"
     showgrid="false"
     inkscape:zoom="0.73625"
     inkscape:cx="399.32088"
     inkscape:cy="400"
     inkscape:window-width="1600"
     inkscape:window-height="792"
     inkscape:window-x="1440"
     inkscape:window-y="27"
     inkscape:window-maximized="1"
     inkscape:current-layer="svg704" />
  <path
     d="m 14.339122,15.469218 c -0.29314,0.29265 -0.29354,0.76752 -9e-4,1.06066 0.29265,0.29314 0.76752,0.29354 1.06066,9e-4 z m 5.19076,-3.06242 c 0.29314,-0.2927 0.29354,-0.7675 9e-4,-1.0607 -0.29265,-0.2931 -0.76752,-0.2935 -1.06066,-9e-4 z m -1.04306,0.0161 c 0.30207,0.2835 0.7767,0.2683 1.06012,-0.0337 0.28342,-0.3021 0.26831,-0.7767 -0.03376,-1.0601 z m -3.10464,-4.9698007 c -0.30207,-0.2835 -0.7767,-0.2683 -1.06012,0.0337 -0.28342,0.3021 -0.26831,0.7767 0.03376,1.0601 z m 3.61782,5.1729007 c 0.41421,0 0.75,-0.3358 0.75,-0.75 0,-0.4142 -0.33579,-0.75 -0.75,-0.75 z m -10.3700002,-0.75 v -0.75 h -0.0023 z m -2.5626,-1.0526 -0.5288,0.5319 v 0 z m -0.3174,-2.5585007 c -0.0011,-0.4142 -0.3379,-0.749 -0.7521,-0.7479 -0.4142,0.0011 -0.749,0.3379 -0.7479,0.7521 z m 9.6488802,8.2658807 4.131,-4.12398 -1.05976,-1.0616 -4.131,4.12402 z m 4.1143,-5.20168 -4.131,-3.8760007 -1.02636,1.0938 4.131,3.8760007 z m -0.51318,-0.2031 H 8.6300018 v 1.5 H 19.000002 Z m -10.3723002,0 c -0.761,0.0023 -1.4918,-0.2978 -2.0315,-0.8344 l -1.0576,1.0637 c 0.8219,0.8171 1.9347,1.2742 3.0937,1.2707 z m -2.0315,-0.8344 c -0.5397,-0.5366007 -0.8441,-1.2656007 -0.8462,-2.0267007 l -1.5,0.0042 c 0.0032,1.1589 0.4667,2.2691007 1.2886,3.0862007 z"
     fill="#000000"
     id="path702" />
</svg>
