<?xml version="1.0" standalone="no"?>
<!DOCTYPE svg PUBLIC "-//W3C//DTD SVG 1.0//EN" "http://www.w3.org/TR/2001/REC-SVG-20010904/DTD/svg10.dtd">
<svg xmlns="http://www.w3.org/2000/svg" xmlns:xlink="http://www.w3.org/1999/xlink" id="body_1" width="666" height="499">

<g transform="matrix(0.998 0 0 0.998 83.49999 -0)">
	<g>
        <path d="M13.440002 350.024C 13.440002 274.89725 118.92529 213.99498 249.048 213.99498C 379.17072 213.99498 484.656 274.89725 484.656 350.024C 484.656 425.15073 379.17072 486.05298 249.048 486.05298C 118.92529 486.05298 13.440002 425.15073 13.440002 350.024" stroke="none" fill="#F0F0F0" fill-rule="nonzero" />
	</g>
	<g>
        <path d="M384.363 397.224C 368.913 388.304 368.913 373.842 384.363 364.922C 399.81302 356.00198 424.86102 356.00198 440.311 364.922C 455.76102 373.842 455.76102 388.304 440.311 397.224C 424.861 406.144 399.813 406.144 384.363 397.224z" stroke="none" fill="#E0E0E0" fill-rule="nonzero" />
        <path d="M70.119 398.462L29.479004 374.99802C 27.188004 373.67502 27.188004 371.53003 29.479004 370.20703L29.479004 370.20703L265.868 233.72803C 268.159 232.40503 271.87402 232.40503 274.165 233.72803L274.165 233.72803L314.807 257.19104C 317.098 258.51404 317.098 260.65903 314.807 261.98105L314.807 261.98105L78.416 398.462C 76.125 399.785 72.41 399.785 70.119 398.462z" stroke="none" fill="#E0E0E0" fill-rule="nonzero" />
	</g>
	<g>
		<g>
			<g>
				<g>
                    <path d="M216.2 356.644L251.137 336.44302C 254.73799 334.364 256.539 331.63904 256.539 328.91403C 256.539 326.18903 256.55402 324.05405 256.55402 324.05405L256.55402 324.05405L220.30502 303.61404C 218.38402 302.50504 216.82703 299.80804 216.82703 297.59006L216.82703 297.59006L216.82703 254.51506L155.80403 289.77707L155.80203 332.85107C 155.80203 335.06906 157.35904 337.76608 159.28003 338.87506L159.28003 338.87506L190.11603 356.64307C 197.319 360.803 208.997 360.802 216.2 356.644z" stroke="none" fill="# #0074d9" fill-rule="nonzero" />
				</g>
				<g>
                    <path d="M216.2 356.644L251.137 336.44302C 254.73799 334.364 256.539 331.63904 256.539 328.91403C 256.539 326.18903 256.55402 324.05405 256.55402 324.05405L256.55402 324.05405L220.30502 303.61404C 218.38402 302.50504 216.82703 299.80804 216.82703 297.59006L216.82703 297.59006L216.82703 254.51506L155.80403 289.77707L155.80203 332.85107C 155.80203 335.06906 157.35904 337.76608 159.28003 338.87506L159.28003 338.87506L190.11603 356.64307C 197.319 360.803 208.997 360.802 216.2 356.644z" stroke="none" fill="#000000" fill-rule="nonzero" fill-opacity="0.6" />
				</g>
                <path d="M170.455 340.48L170.455 345.319L159.271 338.874C 157.36299 337.77 155.797 335.07898 155.797 332.85L155.797 332.85L155.797 289.78L167.423 283.073C 167.664 286.025 167.925 289.077 168.166 292.049L168.166 292.049L160.014 296.768L160.014 330.42102C 160.014 332.65002 161.56001 335.34003 163.488 336.445L163.488 336.445L170.455 340.48z" stroke="none" fill="#000000" fill-rule="nonzero" fill-opacity="0.29803923" />
                <path d="M160.012 330.428C 160.012 332.646 161.569 335.34302 163.48999 336.452L163.48999 336.452L190.11198 351.787C 197.31499 355.94498 208.99399 355.947 216.19699 351.78998L216.19699 351.78998L251.152 331.59097C 258.356 327.43396 258.357 320.69296 251.15399 316.53397L251.15399 316.53397L224.51498 301.18896C 222.59398 300.07996 221.03699 297.38297 221.03699 295.16498L221.03699 295.16498L221.03598 261.50797L160.01198 296.76996L160.01198 330.428L160.012 330.428z" stroke="none" fill="# #0074d9" fill-rule="nonzero" />
                <path d="M160.012 330.428C 160.012 332.646 161.569 335.34302 163.48999 336.452L163.48999 336.452L190.11198 351.787C 197.31499 355.94498 208.99399 355.947 216.19699 351.78998L216.19699 351.78998L251.152 331.59097C 258.356 327.43396 258.357 320.69296 251.15399 316.53397L251.15399 316.53397L224.51498 301.18896C 222.59398 300.07996 221.03699 297.38297 221.03699 295.16498L221.03699 295.16498L221.03598 261.50797L160.01198 296.76996L160.01198 330.428L160.012 330.428z" stroke="none" fill="#000000" fill-rule="nonzero" fill-opacity="0.29803923" />
                <path d="M231.598 305.283L231.598 305.27798L224.514 301.188C 222.593 300.07898 221.03601 297.382 221.03601 295.164L221.03601 295.164L221.03601 261.507L160.01102 296.76898L160.01102 330.42798C 160.01102 332.64597 161.56802 335.343 163.48901 336.45197L163.48901 336.45197L170.45001 340.47098L231.598 305.283z" stroke="none" fill="#000000" fill-rule="nonzero" fill-opacity="0.49803922" />
                <path d="M256.548 324.058C 256.548 324.058 256.548 326.186 256.548 328.91702C 256.548 331.648 254.741 334.35803 251.147 336.44702L251.147 336.44702L216.20401 356.63602C 212.75002 358.644 208.27301 359.648 203.755 359.72803L203.755 359.72803L203.755 354.88904C 208.27301 354.82904 212.75 353.78503 216.20401 351.79703L216.20401 351.79703L251.147 331.58704C 254.74 329.519 256.548 326.789 256.548 324.058z" stroke="none" fill="# #0074d9" fill-rule="nonzero" />
                <path d="M256.548 324.058C 256.548 324.058 256.548 326.186 256.548 328.91702C 256.548 331.648 254.741 334.35803 251.147 336.44702L251.147 336.44702L216.20401 356.63602C 212.75002 358.644 208.27301 359.648 203.755 359.72803L203.755 359.72803L203.755 354.88904C 208.27301 354.82904 212.75 353.78503 216.20401 351.79703L216.20401 351.79703L251.147 331.58704C 254.74 329.519 256.548 326.789 256.548 324.058z" stroke="none" fill="#000000" fill-rule="nonzero" fill-opacity="0.49803922" />
			</g>
            <path d="M62.031 372.263C 64.283 373.563 68.056 373.493 70.457 372.107C 100.458 354.786 276.457 253.17499 306.45398 235.857C 308.85498 234.471 310.8 231.09999 310.8 228.32799L310.8 228.32799L310.8 37.414C 310.8 34.642002 308.974 31.340002 306.722 30.04C 304.46997 28.740002 300.698 28.809002 298.297 30.196001L298.297 30.196001L62.303 166.446C 59.902 167.832 57.956 171.203 57.956 173.976L57.956 173.976L57.953003 364.88898C 57.953 367.661 59.778 370.962 62.031 372.263z" stroke="none" fill="# #0074d9" fill-rule="nonzero" />
            <path d="M70.457 372.102L306.453 235.853C 308.854 234.467 310.8 231.096 310.8 228.323L310.8 228.323L310.8 37.409C 310.8 34.637 308.85397 33.513 306.453 34.899002L306.453 34.899002L70.46 171.149C 68.059 172.535 66.113 175.906 66.113 178.679L66.113 178.679L66.11 369.592C 66.11 372.364 68.057 373.488 70.457 372.102z" stroke="none" fill="# #0074d9" fill-rule="nonzero" />
            <path d="M70.457 372.102L306.453 235.853C 308.854 234.467 310.8 231.096 310.8 228.323L310.8 228.323L310.8 37.409C 310.8 34.637 308.85397 33.513 306.453 34.899002L306.453 34.899002L70.46 171.149C 68.059 172.535 66.113 175.906 66.113 178.679L66.113 178.679L66.11 369.592C 66.11 372.364 68.057 373.488 70.457 372.102z" stroke="none" fill="#000000" fill-rule="nonzero" fill-opacity="0.49803922" />
            <path d="M69.817 377.064C 67.408005 378.128 64.075005 378.08798 62.027 376.90298C 59.778 375.598 57.951 372.305 57.951 369.51398L57.951 369.51398L57.951 352.13098L66.103 356.84998L66.103 374.23297C 66.103 376.763 67.709 377.907 69.817 377.064z" stroke="none" fill="# #0074d9" fill-rule="nonzero" />
            <path d="M69.817 377.064C 67.408005 378.128 64.075005 378.08798 62.027 376.90298C 59.778 375.598 57.951 372.305 57.951 369.51398L57.951 369.51398L57.951 352.13098L66.103 356.84998L66.103 374.23297C 66.103 376.763 67.709 377.907 69.817 377.064z" stroke="none" fill="#000000" fill-rule="nonzero" fill-opacity="0.49803922" />
            <path d="M66.103 356.849L66.11 374.226C 66.11 376.99802 68.057 378.122 70.457 376.73602L70.457 376.73602L306.453 240.48703C 308.854 239.10103 310.8 235.73003 310.8 232.95703L310.8 232.95703L310.8 215.54303L66.103 356.849z" stroke="none" fill="# #0074d9" fill-rule="nonzero" />
            <path d="M66.11 356.813L66.11 374.22598C 66.11 376.998 68.057 378.12198 70.457 376.736L70.457 376.736L306.453 240.487C 308.854 239.101 310.8 235.73 310.8 232.957L310.8 232.957L310.8 215.543L66.11 356.813z" stroke="none" fill="#000000" fill-rule="nonzero" fill-opacity="0.29803923" />
            <path d="M74.264 335.041L74.266 181.38599C 74.266 179.72299 75.434 177.69998 76.874 176.86798L76.874 176.86798L300.031 48.028C 301.47202 47.196 302.639 47.871 302.639 49.534L302.639 49.534L302.646 203.193C 302.646 204.85599 301.478 206.879 300.038 207.711L300.038 207.711L76.873 336.547C 75.432 337.379 74.264 336.704 74.264 335.041z" stroke="none" fill="# #0074d9" fill-rule="nonzero" />
            <path d="M74.264 335.041L74.266 181.38599C 74.266 179.72299 75.434 177.69998 76.874 176.86798L76.874 176.86798L300.031 48.028C 301.47202 47.196 302.639 47.871 302.639 49.534L302.639 49.534L302.646 203.193C 302.646 204.85599 301.478 206.879 300.038 207.711L300.038 207.711L76.873 336.547C 75.432 337.379 74.264 336.704 74.264 335.041z" stroke="none" fill="#263238" fill-rule="nonzero" />
            <path d="M188.452 291.726C 186.19899 293.027 184.373 296.19 184.373 298.79102C 184.373 301.39203 186.2 302.446 188.453 301.14502C 190.70601 299.84402 192.532 296.68103 192.532 294.08002C 192.531 291.48 190.705 290.426 188.452 291.726z" stroke="none" fill="# #0074d9" fill-rule="nonzero" />
            <path d="M67.388 174.378C 66.605 175.74301 66.123 177.289 66.103 178.675L66.103 178.675L66.103 356.85L57.950996 352.131L57.955997 173.97601C 57.955997 172.59102 58.453 171.04501 59.235996 169.68001L59.235996 169.68001L67.388 174.378z" stroke="none" fill="#000000" fill-rule="nonzero" fill-opacity="0.69803923" />
            <path d="M310.756 36.694C 310.448 34.453 308.638 33.641 306.449 34.895L306.449 34.895L70.46 171.153C 69.267 171.842 68.187996 173.01399 67.386 174.381L67.386 174.381L59.233 169.673C 60.025 168.326 61.104 167.134 62.307003 166.445L62.307003 166.445L298.296 30.197C 300.702 28.809 304.464 28.737 306.72598 30.043001C 308.782 31.225 310.478 34.093 310.756 36.694z" stroke="none" fill="#000000" fill-rule="nonzero" fill-opacity="0.29803923" />
		</g>
	</g>
	<g>
		<g>
			<g>
				<g>
					<g>
                        <path d="M323.492 60.187C 322.924 59.846 322.14902 59.858 321.275 60.363L321.275 60.363L98.587 188.949C 96.904 189.921 95.54 192.281 95.54 194.224L95.54 194.224L95.542 346.943C 95.542 348.12698 96.049 349.173 96.826 349.59C 97.324 349.858 99.940994 351.38 100.717995 351.798C 101.215996 352.066 101.825 352.075 102.482994 351.696L102.482994 351.696L325.163 223.05902C 326.847 222.09003 328.212 219.73003 328.212 217.78702L328.212 217.78702L328.212 64.328C 328.212 63.326004 327.849 62.632004 327.268 62.327003C 326.721 62.041 324.053 60.523 323.492 60.187z" stroke="none" fill="# #0074d9" fill-rule="nonzero" />
					</g>
					<g>
						<g>
                            <path d="M101.477 351.491C 100.626 351.491 99.935 350.441 99.935 349.151L99.935 349.151L99.935 196.432C 99.935 194.682 101.215 192.464 102.730995 191.58801L102.730995 191.58801L325.416 63.002C 325.81198 62.773 326.19498 62.653 326.52597 62.653C 327.26898 62.653 327.71198 63.279 327.71198 64.328L327.71198 64.328L327.71198 217.78801C 327.71198 219.53801 326.43097 221.75401 324.91397 222.626L324.91397 222.626L102.233 351.263C 101.971 351.414 101.717 351.491 101.477 351.491z" stroke="none" fill="#FAFAFA" fill-rule="nonzero" />
                            <path d="M326.527 63.153C 327.12302 63.153 327.212 63.889 327.212 64.328L327.212 64.328L327.212 217.78801C 327.212 219.38101 326.045 221.39801 324.663 222.19402L324.663 222.19402L101.985 350.83C 101.799 350.93698 101.628 350.991 101.477 350.991C 100.921 350.991 100.434 350.131 100.434 349.151L100.434 349.151L100.434 196.432C 100.434 194.83801 101.6 192.819 102.979996 192.022L102.979996 192.022L325.666 63.435C 326.07 63.202 326.357 63.153 326.527 63.153zM326.527 62.153C 326.118 62.153 325.655 62.287 325.16602 62.569L325.16602 62.569L102.481 191.156C 100.799 192.127 99.435005 194.49 99.435005 196.432L99.435005 196.432L99.435005 349.151C 99.435005 350.687 100.288 351.991 101.478004 351.991C 101.79301 351.991 102.132 351.9 102.484 351.697L102.484 351.697L325.164 223.06C 326.848 222.091 328.213 219.731 328.213 217.788L328.213 217.788L328.213 64.328C 328.213 62.95 327.526 62.153 326.527 62.153z" stroke="none" fill="#E0E0E0" fill-rule="nonzero" />
						</g>
                        <path d="M96.822 349.589C 97.152 349.76398 99.520996 351.115 100.559 351.706C 99.859 351.207 99.49 350.35 99.437996 349.14798L99.437996 349.14798L99.437996 206.397L95.537994 204.115L95.537994 346.944C 95.538 348.123 96.046 349.177 96.822 349.589z" stroke="none" fill="#F0F0F0" fill-rule="nonzero" />
					</g>
					<g>
                        <path d="M328.211 64.305C 328.199 62.381 326.842 61.602 325.167 62.569L325.167 62.569L102.481 191.156C 100.799 192.127 99.435005 194.49 99.435005 196.432L99.435005 196.432L99.438 206.397L328.211 74.303L328.211 64.305z" stroke="none" fill="# #0074d9" fill-rule="nonzero" />
						<g>
                            <path d="M325.165 62.568L102.484 191.154C 101.65 191.643 100.884 192.46701 100.338 193.41501L100.338 193.41501L96.466995 191.173C 97.01299 190.23401 97.76299 189.418 98.586 188.948L98.586 188.948L321.275 60.362C 322.147 59.854 322.923 59.846 323.48898 60.182C 324.03497 60.517 326.56497 61.954998 327.20697 62.299C 326.669 62.041 325.951 62.118 325.165 62.568z" stroke="none" fill="#FFFFFF" fill-rule="nonzero" fill-opacity="0.4" />
						</g>
                        <path d="M95.538 204.125L95.54 194.22C 95.54 193.233 95.902 192.141 96.467 191.173L96.467 191.173L100.347 193.405C 99.782 194.36299 99.437 195.446 99.437 196.43199L99.437 196.43199L99.437 206.39499L95.538 204.125z" stroke="none" fill="#000000" fill-rule="nonzero" fill-opacity="0.14901961" />
					</g>
				</g>
			</g>
			<g>
				<g>
                    <path d="M281.25 179.423L147.876 256.426C 146.647 257.136 145.65001 258.862 145.65001 260.281L145.65001 260.281L145.65001 298.517C 145.65001 299.936 146.647 301.661 147.878 302.369L147.878 302.369L151.77501 304.611C 153.005 305.319 154.99901 305.317 156.22801 304.608L156.22801 304.608L289.584 227.615C 290.81302 226.905 291.81003 225.179 291.811 223.76001L291.811 223.76001L291.827 185.513C 291.828 184.094 290.831 182.369 289.6 181.661L289.6 181.661L285.704 179.41899C 284.473 178.712 282.479 178.714 281.25 179.423z" stroke="none" fill="# #0074d9" fill-rule="nonzero" />
                    <path d="M291.809 185.153C 291.655 184.002 290.719 183.58 289.599 184.228L289.599 184.228L156.23 261.229C 155.61299 261.579 155.058 262.195 154.657 262.894L154.657 262.894L146.30899 258.07202C 146.70999 257.38303 147.26498 256.777 147.872 256.42703L147.872 256.42703L281.25098 179.42603C 282.47498 178.71703 284.46896 178.70602 285.70297 179.41603L285.70297 179.41603L289.59897 181.65703C 290.729 182.305 291.665 183.817 291.809 185.153z" stroke="none" fill="#FFFFFF" fill-rule="nonzero" fill-opacity="0.49803922" />
                    <path d="M155.85 304.787C 154.61601 305.31097 152.889 305.25 151.779 304.612L151.779 304.612L147.88301 302.371C 146.64902 301.662 145.65201 299.935 145.65201 298.516L145.65201 298.516L145.65201 260.283C 145.65201 259.563 145.90901 258.772 146.31001 258.073L146.31001 258.073L154.65802 262.895C 154.24702 263.594 154.00002 264.375 154.00002 265.085L154.00002 265.085L154.00002 303.328C 153.999 304.602 154.801 305.188 155.85 304.787z" stroke="none" fill="#263238" fill-rule="nonzero" />
                    <path d="M156.227 261.233L289.601 184.229C 290.83002 183.519 291.82602 184.095 291.82602 185.514L291.82602 185.514L291.81003 223.76102C 291.80902 225.18002 290.81204 226.90602 289.58304 227.61601L289.58304 227.61601L156.22704 304.609C 154.99803 305.319 154.00104 304.743 154.00104 303.324L154.00104 303.324L154.00104 265.088C 154.002 263.668 154.998 261.942 156.227 261.233z" stroke="none" fill="# #0074d9" fill-rule="nonzero" />
                    <path d="M245.894 199.839L147.871 256.428C 147.265 256.778 146.71 257.384 146.308 258.073L146.308 258.073L154.656 262.895C 155.057 262.19598 155.612 261.57898 156.229 261.22998L156.229 261.22998L254.22601 204.65099L245.894 199.839z" stroke="none" fill="#455A64" fill-rule="nonzero" />
                    <path d="M254.227 204.652L156.227 261.232C 154.998 261.942 154.001 263.668 154.001 265.087L154.001 265.087L154.001 303.323C 154.001 304.742 154.99701 305.318 156.227 304.608L156.227 304.608L254.227 248.028L254.227 204.652z" stroke="none" fill="#37474F" fill-rule="nonzero" />
				</g>
				<g>
                    <path d="M178.829 256.575L229.396 227.37901C 231.493 226.16801 233.192 227.02802 233.192 229.30002C 233.192 231.57101 231.492 234.39401 229.395 235.60501L229.395 235.60501L178.832 264.798C 176.735 266.009 175.034 265.14902 175.034 262.879C 175.033 260.608 176.732 257.786 178.829 256.575z" stroke="none" fill="# #0074d9" fill-rule="nonzero" />
				</g>
				<g>
                    <path d="M189.191 266.237C 189.248 266.204 189.29799 266.213 189.33899 266.263C 189.381 266.313 189.402 266.388 189.402 266.49L189.402 266.49L189.402 272.185C 189.402 272.759 189.355 273.303 189.26 273.82098C 189.168 274.33698 189.027 274.817 188.838 275.25897C 188.651 275.70096 188.416 276.09198 188.136 276.43597C 187.854 276.77798 187.529 277.05597 187.159 277.26898C 186.784 277.486 186.456 277.58398 186.178 277.56598C 185.89899 277.546 185.666 277.42297 185.47899 277.19897C 185.29099 276.97397 185.152 276.65497 185.05998 276.24496C 184.96999 275.83496 184.92299 275.34296 184.92299 274.76895L184.92299 274.76895L184.92299 269.07495C 184.92299 268.97296 184.94398 268.87396 184.986 268.77594C 185.027 268.67795 185.07599 268.61093 185.13399 268.57895L185.13399 268.57895L185.76799 268.21295C 185.825 268.17896 185.874 268.18796 185.91699 268.23795C 185.958 268.28793 185.97899 268.36295 185.97899 268.46494L185.97899 268.46494L185.97899 274.08994C 185.97899 274.46994 186.008 274.77695 186.06499 275.01193C 186.12099 275.24893 186.20299 275.42194 186.30598 275.53192C 186.40999 275.64392 186.53598 275.69693 186.68199 275.69193C 186.82799 275.6859 186.98698 275.63293 187.159 275.53394C 187.331 275.43494 187.48999 275.30295 187.63899 275.13794C 187.788 274.97293 187.91399 274.77695 188.019 274.54395C 188.123 274.31296 188.205 274.04596 188.265 273.74295C 188.325 273.43994 188.354 273.09796 188.354 272.71896L188.354 272.71896L188.354 267.09497C 188.354 266.99298 188.375 266.89398 188.416 266.79596C 188.45801 266.69797 188.507 266.63095 188.566 266.59796L188.566 266.59796L189.191 266.237z" stroke="none" fill="#FAFAFA" fill-rule="nonzero" />
                    <path d="M193.113 271.625C 193.113 271.525 193.095 271.451 193.05801 271.407C 193.02202 271.363 192.95801 271.34003 192.86702 271.337C 192.77602 271.334 192.65402 271.348 192.50401 271.38C 192.35202 271.41202 192.16002 271.449 191.92601 271.492C 191.69601 271.532 191.507 271.52402 191.356 271.474C 191.20401 271.422 191.084 271.329 190.993 271.197C 190.902 271.064 190.838 270.892 190.801 270.675C 190.765 270.46 190.747 270.214 190.747 269.93698C 190.747 269.65897 190.78299 269.365 190.85599 269.05298C 190.92899 268.74298 191.03398 268.44397 191.17198 268.15598C 191.31099 267.86798 191.47798 267.602 191.67598 267.35797C 191.87398 267.11496 192.10098 266.91898 192.35597 266.77197C 192.61098 266.62497 192.83897 266.54297 193.03998 266.53098C 193.24098 266.51596 193.41098 266.55197 193.55197 266.63696C 193.69197 266.72296 193.80096 266.85196 193.87897 267.02496C 193.95697 267.19797 194.00096 267.39096 194.01196 267.60696C 194.01697 267.70596 193.99696 267.80597 193.95296 267.90497C 193.90895 268.00397 193.85796 268.07095 193.79996 268.10297L193.79996 268.10297L193.19896 268.44995C 193.12196 268.49496 193.06197 268.50394 193.02296 268.47595C 192.98396 268.44794 192.94197 268.41394 192.89496 268.37595C 192.84796 268.33994 192.78596 268.31793 192.70695 268.31195C 192.62996 268.30594 192.51195 268.34796 192.35596 268.43796C 192.19896 268.52795 192.06195 268.64896 191.94196 268.80096C 191.82196 268.95398 191.76096 269.13696 191.76096 269.34998C 191.76096 269.451 191.77596 269.52798 191.80496 269.58197C 191.83296 269.63397 191.88696 269.666 191.96796 269.67398C 192.04895 269.684 192.16196 269.676 192.30496 269.654C 192.44797 269.632 192.63297 269.59598 192.86296 269.548C 193.32596 269.456 193.65295 269.542 193.84296 269.807C 194.03296 270.07202 194.12895 270.484 194.12895 271.038C 194.12895 271.317 194.08995 271.609 194.01195 271.918C 193.93394 272.227 193.81995 272.52798 193.67195 272.823C 193.52295 273.117 193.34195 273.389 193.12495 273.639C 192.90895 273.889 192.66495 274.092 192.39496 274.247C 192.11797 274.407 191.87596 274.489 191.66396 274.495C 191.45296 274.501 191.27396 274.454 191.12996 274.352C 190.98296 274.25198 190.87196 274.108 190.79396 273.921C 190.71596 273.735 190.67397 273.533 190.66795 273.314C 190.66295 273.215 190.68295 273.115 190.72696 273.016C 190.77097 272.917 190.82095 272.85 190.87895 272.81598L190.87895 272.81598L191.48096 272.469C 191.55896 272.425 191.61696 272.423 191.65695 272.465C 191.69495 272.508 191.73994 272.555 191.78896 272.611C 191.83795 272.666 191.90695 272.69998 191.99596 272.714C 192.08395 272.727 192.21695 272.68298 192.39496 272.58C 192.47296 272.53497 192.55396 272.47897 192.63696 272.412C 192.71996 272.34598 192.79796 272.271 192.86797 272.189C 192.93697 272.107 192.99597 272.017 193.04396 271.921C 193.089 271.826 193.113 271.727 193.113 271.625z" stroke="none" fill="#FAFAFA" fill-rule="nonzero" />
                    <path d="M195.15 268.906C 195.15 268.388 195.194 267.875 195.28299 267.36502C 195.372 266.85602 195.49998 266.38403 195.66599 265.94904C 195.833 265.51505 196.03398 265.13303 196.27098 264.80103C 196.50798 264.47003 196.77199 264.22104 197.06398 264.05203C 197.35498 263.88303 197.61897 263.82504 197.85698 263.87704C 198.09297 263.93103 198.29498 264.07004 198.46198 264.29303C 198.62798 264.51602 198.75697 264.81702 198.84897 265.19403C 198.93896 265.57303 198.98596 265.99802 198.98596 266.47003L198.98596 266.47003L198.98596 267.09402C 198.98596 267.196 198.96497 267.29703 198.92296 267.39304C 198.88196 267.49103 198.83296 267.55804 198.77396 267.59103L198.77396 267.59103L196.16496 269.09802C 196.16496 269.31104 196.19096 269.48303 196.23996 269.61603C 196.28896 269.75104 196.35497 269.84903 196.43896 269.91104C 196.52196 269.97403 196.61896 270.00204 196.72797 269.99405C 196.83696 269.98706 196.94997 269.94904 197.06396 269.88306C 197.22997 269.78806 197.36496 269.68005 197.46997 269.55905C 197.57397 269.43906 197.65997 269.31406 197.72797 269.18106C 197.78497 269.07507 197.83197 268.99606 197.86897 268.94705C 197.90497 268.89804 197.95497 268.85706 198.01797 268.82104L198.01797 268.82104L198.64297 268.46005C 198.69897 268.42804 198.74997 268.43506 198.79497 268.48206C 198.83897 268.53107 198.85896 268.60806 198.85297 268.71304C 198.84796 268.84604 198.80797 269.03503 198.73297 269.28305C 198.65797 269.53006 198.54398 269.79404 198.39297 270.07605C 198.24197 270.35806 198.05597 270.63205 197.83498 270.89804C 197.61398 271.16403 197.35698 271.38205 197.06598 271.55005C 196.77397 271.71906 196.50998 271.78104 196.27298 271.73904C 196.03598 271.69504 195.83398 271.55405 195.66798 271.31705C 195.50098 271.08005 195.37398 270.75806 195.28499 270.35004C 195.195 269.944 195.15 269.462 195.15 268.906zM197.065 265.717C 196.91301 265.80502 196.785 265.92 196.67801 266.05902C 196.57101 266.20102 196.481 266.35303 196.408 266.52002C 196.335 266.68802 196.28 266.85803 196.24 267.03403C 196.201 267.21002 196.17601 267.36902 196.16501 267.51404L196.16501 267.51404L197.93102 266.49503C 197.92102 266.36304 197.90102 266.22903 197.87302 266.09103C 197.84502 265.95505 197.79802 265.84402 197.73201 265.75604C 197.667 265.67004 197.58002 265.61804 197.47401 265.60004C 197.367 265.583 197.231 265.622 197.065 265.717z" stroke="none" fill="#FAFAFA" fill-rule="nonzero" />
                    <path d="M202.127 262.934C 201.815 263.115 201.59 263.36798 201.451 263.692C 201.313 264.01797 201.244 264.45798 201.244 265.013L201.244 265.013L201.244 268.624C 201.244 268.725 201.223 268.826 201.182 268.923C 201.14 269.021 201.091 269.088 201.03201 269.12L201.03201 269.12L200.44002 269.46298C 200.38301 269.495 200.33302 269.48697 200.29102 269.43698C 200.24901 269.38797 200.22801 269.31198 200.22801 269.21L200.22801 269.21L200.22801 262.73798C 200.22801 262.63696 200.24901 262.53598 200.29102 262.43896C 200.33202 262.34097 200.38202 262.27496 200.44002 262.24097L200.44002 262.24097L201.03201 261.89996C 201.09001 261.86597 201.139 261.87497 201.182 261.92496C 201.223 261.97397 201.244 262.04996 201.244 262.15195L201.244 262.15195L201.244 262.47195C 201.379 262.17096 201.524 261.91696 201.67801 261.70694C 201.83101 261.49792 202.03201 261.32193 202.283 261.17694L202.283 261.17694L202.634 260.97394C 202.69101 260.94193 202.74 260.94995 202.783 260.99994C 202.824 261.04895 202.845 261.12595 202.845 261.22693L202.845 261.22693L202.845 262.14392C 202.845 262.2459 202.824 262.34592 202.783 262.4439C 202.741 262.5419 202.692 262.60892 202.634 262.6409L202.634 262.6409L202.127 262.934z" stroke="none" fill="#FAFAFA" fill-rule="nonzero" />
                    <path d="M209.587 262.447C 209.64401 262.414 209.69301 262.423 209.73601 262.473C 209.77701 262.522 209.798 262.599 209.798 262.69998L209.798 262.69998L209.798 263.68698C 209.798 263.788 209.77701 263.88898 209.73601 263.986C 209.694 264.08398 209.645 264.15 209.587 264.18298L209.587 264.18298L206.16501 266.159C 206.10701 266.192 206.059 266.18298 206.016 266.133C 205.975 266.08398 205.95401 266.008 205.95401 265.906L205.95401 265.906L205.95401 256.93402C 205.95401 256.833 205.975 256.73303 206.016 256.635C 206.05801 256.53702 206.106 256.471 206.16501 256.43802L206.16501 256.43802L206.798 256.07303C 206.85501 256.04004 206.905 256.04904 206.947 256.09903C 206.98901 256.14902 207.01001 256.22302 207.01001 256.32602L207.01001 256.32602L207.01001 263.936L209.587 262.447z" stroke="none" fill="#FAFAFA" fill-rule="nonzero" />
                    <path d="M212.656 255.05C 212.94301 254.884 213.20201 254.813 213.434 254.837C 213.666 254.86 213.867 254.962 214.035 255.142C 214.205 255.32199 214.34 255.567 214.44101 255.88C 214.54301 256.191 214.60301 256.556 214.61801 256.97202C 214.62302 257.052 214.626 257.157 214.626 257.28702C 214.626 257.415 214.626 257.54602 214.626 257.674C 214.626 257.80502 214.626 257.931 214.626 258.058C 214.626 258.182 214.623 258.28802 214.61801 258.37402C 214.59702 258.812 214.53801 259.24402 214.43802 259.67203C 214.33902 260.10004 214.20502 260.49902 214.03502 260.87003C 213.86601 261.24002 213.66502 261.57202 213.43402 261.86304C 213.20203 262.15402 212.94302 262.38205 212.65602 262.54803C 212.37003 262.71304 212.11102 262.78503 211.87903 262.76105C 211.64803 262.73706 211.44702 262.63904 211.27902 262.46204C 211.10902 262.28705 210.97502 262.04202 210.87602 261.73004C 210.77702 261.41705 210.71602 261.05203 210.69502 260.63904C 210.69002 260.55905 210.68703 260.45602 210.68402 260.33405C 210.68202 260.20905 210.68002 260.08505 210.68002 259.95505C 210.68002 259.82404 210.68202 259.69406 210.68402 259.56305C 210.68703 259.43204 210.69002 259.32404 210.69502 259.23804C 210.71103 258.80203 210.77002 258.37103 210.87102 257.94104C 210.97302 257.51205 211.10902 257.11005 211.27902 256.73404C 211.44803 256.35803 211.64803 256.02603 211.87903 255.73505C 212.111 255.443 212.37 255.216 212.656 255.05zM213.603 257.629C 213.58699 257.35098 213.549 257.135 213.48799 256.979C 213.428 256.824 213.355 256.716 213.26498 256.656C 213.17699 256.596 213.08098 256.57602 212.97699 256.594C 212.87299 256.612 212.76498 256.65298 212.65599 256.716C 212.54799 256.778 212.441 256.862 212.33699 256.964C 212.23299 257.065 212.13599 257.198 212.04799 257.36C 211.95999 257.52298 211.88399 257.71597 211.82498 257.93997C 211.76598 258.16397 211.72798 258.42496 211.71198 258.71997C 211.70697 258.79797 211.70297 258.89297 211.70097 259.00497C 211.69797 259.11697 211.69597 259.23398 211.69597 259.35397C 211.69597 259.47397 211.69797 259.59097 211.70097 259.705C 211.70297 259.81998 211.70697 259.908 211.71198 259.97C 211.72798 260.247 211.76598 260.464 211.82498 260.618C 211.88399 260.77402 211.95998 260.881 212.04799 260.941C 212.13599 261.001 212.23299 261.022 212.33699 261.00302C 212.441 260.98502 212.54799 260.94302 212.65599 260.881C 212.76498 260.81802 212.87299 260.73602 212.97699 260.634C 213.081 260.532 213.17699 260.401 213.26498 260.238C 213.35399 260.075 213.42798 259.88202 213.48799 259.65802C 213.54799 259.433 213.586 259.17303 213.603 258.877C 213.607 258.811 213.61 258.71802 213.61 258.60202C 213.61 258.48602 213.61 258.36703 213.61 258.247C 213.61 258.129 213.61 258.01202 213.61 257.902C 213.61 257.79 213.607 257.7 213.603 257.629z" stroke="none" fill="#FAFAFA" fill-rule="nonzero" />
                    <path d="M217.679 260.898C 217.79 260.836 217.901 260.74002 218.016 260.614C 218.13 260.488 218.23401 260.334 218.32701 260.14902C 218.421 259.966 218.49802 259.75702 218.55801 259.523C 218.61801 259.289 218.64801 259.03802 218.64801 258.769L218.64801 258.769L218.64801 258.255C 218.606 258.362 218.55202 258.484 218.48302 258.62C 218.41602 258.757 218.33302 258.895 218.23701 259.034C 218.14102 259.173 218.02802 259.307 217.90201 259.436C 217.774 259.56702 217.62901 259.677 217.468 259.769C 217.207 259.92 216.97101 259.966 216.761 259.90802C 216.549 259.85 216.37 259.71103 216.222 259.49603C 216.073 259.28104 215.956 259.00204 215.871 258.65802C 215.785 258.31403 215.73601 257.932 215.725 257.51202C 215.72 257.37503 215.718 257.21603 215.718 257.03003C 215.718 256.84503 215.72 256.68304 215.725 256.54004C 215.73601 256.10803 215.78401 255.67104 215.871 255.22704C 215.95601 254.78404 216.074 254.37004 216.222 253.98303C 216.371 253.59604 216.549 253.25104 216.761 252.94904C 216.97101 252.64703 217.207 252.42204 217.468 252.27104C 217.629 252.17804 217.774 252.12004 217.90201 252.10304C 218.02802 252.08504 218.141 252.09004 218.23701 252.11705C 218.33301 252.14404 218.41602 252.18805 218.48302 252.24706C 218.55101 252.30505 218.60501 252.36406 218.64801 252.42305L218.64801 252.42305L218.64801 252.10304C 218.64801 252.00204 218.66801 251.90204 218.71 251.80405C 218.751 251.70604 218.8 251.64005 218.85901 251.60704L218.85901 251.60704L219.45201 251.26404C 219.50902 251.23204 219.559 251.24004 219.60101 251.29004C 219.64302 251.33904 219.66402 251.41605 219.66402 251.51704L219.66402 251.51704L219.66402 258.03104C 219.66402 259.15103 219.48701 260.09705 219.13602 260.87003C 218.78502 261.64304 218.29901 262.20703 217.67802 262.56503C 217.41302 262.71902 217.16702 262.79803 216.94002 262.80502C 216.71402 262.81003 216.51701 262.75702 216.35101 262.64502C 216.184 262.53302 216.05202 262.37302 215.95201 262.16602C 215.854 261.959 215.798 261.71902 215.78801 261.44803C 215.78201 261.35004 215.80202 261.25003 215.84702 261.15103C 215.89001 261.05103 215.94101 260.98404 215.99901 260.95102L215.99901 260.95102L216.53001 260.64502C 216.60301 260.60303 216.66501 260.61102 216.71701 260.669C 216.76901 260.726 216.81401 260.781 216.85 260.836C 216.917 260.954 217.01001 261.031 217.127 261.064C 217.247 261.099 217.43 261.043 217.679 260.898zM216.742 256.051C 216.726 256.32 216.726 256.579 216.742 256.83C 216.77301 257.412 216.878 257.78598 217.05501 257.94598C 217.231 258.10898 217.44801 258.115 217.70201 257.968C 217.95702 257.81998 218.17201 257.56198 218.34702 257.193C 218.52202 256.82498 218.62201 256.382 218.64801 255.86699C 218.658 255.72198 218.66402 255.54399 218.66402 255.32999C 218.66402 255.11699 218.65802 254.94499 218.64801 254.81198C 218.62201 254.34499 218.522 254.02399 218.34702 253.84598C 218.17201 253.66898 217.95702 253.65398 217.70201 253.80197C 217.447 253.94797 217.23001 254.20697 217.05501 254.57297C 216.878 254.939 216.774 255.433 216.742 256.051z" stroke="none" fill="#FAFAFA" fill-rule="nonzero" />
                    <path d="M221.976 247.17C 222.033 247.136 222.083 247.145 222.124 247.194C 222.166 247.244 222.187 247.321 222.187 247.422L222.187 247.422L222.187 248.50499C 222.187 248.607 222.166 248.70699 222.124 248.805C 222.083 248.903 222.03299 248.969 221.976 249.00299L221.976 249.00299L221.305 249.38998C 221.24799 249.42198 221.198 249.41399 221.15599 249.36398C 221.11398 249.31398 221.09299 249.23798 221.09299 249.13599L221.09299 249.13599L221.09299 248.053C 221.09299 247.952 221.11398 247.851 221.15599 247.75299C 221.19699 247.65599 221.247 247.58899 221.305 247.55699L221.305 247.55699L221.976 247.17zM222.149 256.555C 222.149 256.65698 222.128 256.758 222.086 256.854C 222.045 256.952 221.995 257.019 221.937 257.052L221.937 257.052L221.345 257.394C 221.288 257.427 221.238 257.418 221.196 257.368C 221.15399 257.32 221.133 257.243 221.133 257.14102L221.133 257.14102L221.133 250.67003C 221.133 250.56802 221.15399 250.46703 221.196 250.37103C 221.237 250.27303 221.287 250.20604 221.345 250.17303L221.345 250.17303L221.937 249.83104C 221.994 249.79803 222.04399 249.80704 222.086 249.85704C 222.128 249.90504 222.149 249.98103 222.149 250.08405L222.149 250.08405L222.149 256.555z" stroke="none" fill="#FAFAFA" fill-rule="nonzero" />
                    <path d="M227.429 253.507C 227.429 253.608 227.408 253.709 227.368 253.806C 227.32599 253.904 227.277 253.97 227.219 254.003L227.219 254.003L226.625 254.34601C 226.568 254.378 226.519 254.37001 226.476 254.32C 226.43399 254.27101 226.414 254.195 226.414 254.093L226.414 254.093L226.414 250.565C 226.414 250.01001 226.342 249.60701 226.195 249.358C 226.04901 249.10901 225.826 249.071 225.52301 249.246C 225.24701 249.405 225.03001 249.698 224.87102 250.12201C 224.71202 250.54701 224.63301 251.03801 224.63301 251.593L224.63301 251.593L224.63301 255.121C 224.63301 255.222 224.61201 255.323 224.57101 255.42C 224.529 255.518 224.48001 255.58499 224.42201 255.617L224.42201 255.617L223.82901 255.96C 223.772 255.992 223.72101 255.98401 223.68001 255.934C 223.638 255.88501 223.617 255.808 223.617 255.707L223.617 255.707L223.617 249.235C 223.617 249.134 223.638 249.033 223.68001 248.936C 223.72101 248.838 223.77101 248.772 223.82901 248.738L223.82901 248.738L224.42201 248.397C 224.47902 248.363 224.52802 248.37201 224.57101 248.422C 224.61201 248.471 224.63301 248.548 224.63301 248.649L224.63301 248.649L224.63301 248.96901C 224.76901 248.65001 224.92702 248.36002 225.11002 248.09702C 225.29202 247.83401 225.50801 247.63101 225.75902 247.48701C 226.07602 247.30301 226.34201 247.23701 226.55502 247.29001C 226.76903 247.343 226.94002 247.48001 227.07002 247.701C 227.20102 247.922 227.29303 248.21501 227.34802 248.576C 227.40202 248.938 227.42902 249.337 227.42902 249.772L227.42902 249.772L227.42902 253.507L227.429 253.507z" stroke="none" fill="#FAFAFA" fill-rule="nonzero" />
				</g>
				<g>
                    <path d="M277.875 224.402L268.161 230.01L269.66602 216.386C 268.50403 215.772 267.764 214.26 267.764 212.09C 267.764 208.221 270.116 203.72699 273.018 202.051C 275.919 200.37599 278.271 202.15399 278.271 206.023C 278.271 208.193 277.531 210.56 276.369 212.51599L276.369 212.51599L277.875 224.402z" stroke="none" fill="#455A64" fill-rule="nonzero" />
                    <path d="M277.875 224.402L269.326 219.467L268.161 230.01L277.875 224.402" stroke="none" fill="#37474F" fill-rule="nonzero" />
                    <path d="M273.019 202.051C 271.12003 203.14699 269.462 205.452 268.539 207.997L268.539 207.997L276.371 212.519L276.371 212.517C 277.533 210.561 278.273 208.19499 278.273 206.024C 278.272 202.155 275.92 200.376 273.019 202.051z" stroke="none" fill="#37474F" fill-rule="nonzero" />
				</g>
			</g>
			<g>
				<g>
					<g>
                        <path d="M225.796 156.704C 222.474 154.78099 217.884 155.054 212.811 157.983C 202.672 163.838 194.453 178.075 194.455 189.783C 194.45601 195.658 196.52701 199.77701 199.871 201.685C 200.741 202.18199 205.463 204.929 206.34 205.436C 209.662 207.356 214.25 207.082 219.31999 204.155C 229.458 198.301 237.676 184.064 237.676 172.355C 237.676 166.504 235.622 162.39499 232.303 160.47699" stroke="none" fill="# #0074d9" fill-rule="nonzero" />
                        <path d="M219.317 161.755C 209.179 167.612 200.959 181.847 200.961 193.554C 200.962 205.262 209.18199 210.008 219.31999 204.154C 229.458 198.3 237.687 184.063 237.676 172.354C 237.666 160.648 229.446 155.902 219.317 161.755z" stroke="none" fill="# #0074d9" fill-rule="nonzero" />
                        <path d="M229.454 187.731L229.454 189.067C 226.84 193.529 223.262 197.414 219.318 199.685C 215.36699 201.963 211.797 202.21199 209.18199 200.758L209.18199 200.758L209.18199 197.98999C 209.18199 192.64499 212.81099 186.357 217.441 183.67699L217.441 183.67699L220.10599 182.14299C 222.47198 180.777 224.76498 180.60199 226.56898 181.646C 228.41 182.707 229.454 184.92 229.454 187.731z" stroke="none" fill="# #0074d9" fill-rule="nonzero" />
                        <path d="M225.796 156.704L232.30301 160.47499C 228.979 158.551 224.389 158.823 219.31902 161.75299C 212.68002 165.59 206.86401 173.01999 203.64001 180.97899L203.64001 180.97899L197.13301 177.204C 200.35701 169.245 206.17001 161.815 212.81201 157.98099C 217.885 155.055 222.475 154.781 225.796 156.704z" stroke="none" fill="#FFFFFF" fill-rule="nonzero" fill-opacity="0.4" />
                        <path d="M206.095 205.293C 204.949 204.631 200.673 202.141 199.869 201.683C 196.52501 199.776 194.453 195.657 194.453 189.783L194.453 189.783L200.96 193.558C 200.964 199.264 202.92 203.317 206.095 205.293z" stroke="none" fill="#000000" fill-rule="nonzero" fill-opacity="0.2" />
                        <path d="M197.133 177.205L203.64 180.98C 201.939 185.176 200.961 189.517 200.961 193.554L200.961 193.554L200.961 193.557L194.454 189.78201C 194.454 185.742 195.435 181.398 197.133 177.205z" stroke="none" fill="#000000" fill-rule="nonzero" fill-opacity="0.09803922" />
					</g>
				</g>
				<g>
					<g>
                        <path d="M217.01 181.521C 216.374 181.521 215.78099 181.368 215.24399 181.06099C 214.00699 180.346 213.32599 178.93098 213.32599 177.07799C 213.32599 173.68498 215.62799 169.69598 218.56898 167.999L218.56898 167.999L218.56898 167.99599C 220.16798 167.06898 221.72998 166.95398 222.97598 167.66798C 224.21298 168.38298 224.89398 169.79799 224.89398 171.65099C 224.89398 175.04399 222.59198 179.03299 219.65398 180.72998C 218.742 181.255 217.844 181.521 217.01 181.521z" stroke="none" fill="#FFFFFF" fill-rule="nonzero" />
					</g>
					<g>
                        <path d="M226.569 181.648C 224.765 180.60399 222.472 180.77899 220.106 182.14499L220.106 182.14499L217.44101 183.67899C 212.811 186.35898 209.182 192.64598 209.182 197.99199L209.182 197.99199L209.182 200.76C 211.796 202.213 215.367 201.965 219.31801 199.687C 223.261 197.416 226.839 193.53099 229.45401 189.069L229.45401 189.069L229.45401 187.733C 229.454 184.92 228.41 182.707 226.569 181.648z" stroke="none" fill="#FFFFFF" fill-rule="nonzero" />
					</g>
				</g>
			</g>
		</g>
	</g>
	<g>
		<g>
			<g>
				<g>
                    <path d="M432.154 354.648C 432.154 354.648 433.482 342.96902 439.291 333.905C 445.10098 324.841 453.08298 319.184 460.53098 318.595C 467.97897 318.006 473.99496 324.858 466.02496 329.564C 458.05597 334.27 443.89697 339.072 437.38095 356.672L437.38095 356.672L432.154 354.648z" stroke="none" fill="# #0074d9" fill-rule="nonzero" />
                    <path d="M432.154 354.648C 432.154 354.648 433.482 342.96902 439.291 333.905C 445.10098 324.841 453.08298 319.184 460.53098 318.595C 467.97897 318.006 473.99496 324.858 466.02496 329.564C 458.05597 334.27 443.89697 339.072 437.38095 356.672L437.38095 356.672L432.154 354.648z" stroke="none" fill="#000000" fill-rule="nonzero" fill-opacity="0.09803922" />
				</g>
				<g>
                    <path d="M434.338 351.615C 434.311 351.61 434.285 351.603 434.259 351.59198C 434.055 351.50998 433.957 351.27798 434.04 351.07397C 441.9 331.71698 456.863 323.63397 463.677 322.06497C 463.89 322.01398 464.104 322.14996 464.154 322.36298C 464.203 322.57797 464.06998 322.791 463.856 322.83997C 457.181 324.37695 442.51398 332.31998 434.77698 351.37296C 434.705 351.551 434.519 351.648 434.338 351.615z" stroke="none" fill="#FFFFFF" fill-rule="nonzero" />
				</g>
			</g>
			<g>
				<g>
					<g>
                        <path d="M474.124 351.844C 473.44998 353.36398 471.78998 354.156 470.245 354.77798C 468.70898 355.39398 467.025 356.068 466.191 357.50497C 464.51 360.40897 467.27002 364.49097 465.465 367.31897C 464.707 368.50397 463.299 369.12897 461.914 369.37698C 460.763 369.59198 459.592 369.59097 458.425 369.689C 457.86398 369.677 457.30798 369.637 456.766 369.56C 455.16498 369.328 453.42798 369.253 451.961 370.072C 449.65298 371.369 448.944 374.283 447.543 376.53C 445.862 379.22 442.891 380.982 439.769 381.406C 438.73203 381.543 436.803 381.73 435.746 381.141C 435.663 381.095 435.595 381.052 435.528 381.00198C 435.52103 381.00098 435.515 380.99197 435.509 380.98297C 435.364 380.81897 435.182 380.61096 435.103 380.498C 435.083 380.47897 435.073 380.455 435.062 380.43C 434.653 378.92398 435.321 377.357 435.34702 375.802C 435.35 375.704 435.351 375.613 435.345 375.52C 435.281 373.71198 435.23 371.914 435.187 370.111C 435.103 366.793 435.065 363.468 435.088 360.146C 435.11102 357.98898 434.851 355.62698 435.764 353.595C 436.775 351.36002 439.288 351.311 440.238 349.118C 440.61902 348.24402 440.821 347.307 441.189 346.423C 442.288 343.831 444.951 341.96802 447.76898 341.83002C 452.15598 341.60703 456.094 345.15903 460.47598 344.83603C 461.611 344.74704 462.71698 344.40204 463.835 344.196C 467.38898 343.531 471.496 344.54202 473.494 347.55002C 474.331 348.807 474.735 350.464 474.124 351.844z" stroke="none" fill="# #0074d9" fill-rule="nonzero" />
					</g>
				</g>
				<g>
                    <path d="M434.704 373.519C 434.694 373.517 434.68402 373.515 434.674 373.51202C 434.475 373.459 434.35602 373.25403 434.409 373.05402C 440.471 350.31003 464.435 347.023 470.042 347.428C 470.245 347.444 470.40298 347.622 470.388 347.828C 470.373 348.034 470.194 348.189 469.988 348.174C 464.504 347.778 441.064 350.99402 435.13202 373.247C 435.082 373.437 434.894 373.554 434.704 373.519z" stroke="none" fill="#FFFFFF" fill-rule="nonzero" />
				</g>
				<g>
                    <path d="M461.33 361.994C 461.257 361.981 461.188 361.94598 461.132 361.88898C 461.072 361.82797 454.96 355.80298 444.82397 357.29498C 444.61996 357.322 444.429 357.184 444.399 356.97897C 444.369 356.774 444.511 356.58398 444.715 356.554C 455.24298 355.00598 461.60098 361.29797 461.665 361.362C 461.81 361.509 461.80902 361.746 461.66202 361.891C 461.571 361.981 461.446 362.015 461.33 361.994z" stroke="none" fill="#FFFFFF" fill-rule="nonzero" />
				</g>
			</g>
		</g>
	</g>
	<g>
		<g>
            <path d="M377.115 80.006L380.297 81.229996L380.297 74.218994C 380.297 68.660995 384.73 67.328995 389.543 70.106995C 394.356 72.885994 398.258 79.644 398.258 85.201996L398.258 85.201996L398.258 86.21999C 399.35 85.784 400.76 85.952995 402.302 86.843994C 405.766 88.843994 408.573 93.70699 408.573 97.70599L408.573 97.70599L408.573 98.16899L413.01 100.73099C 415.29102 102.04799 417.14 105.250984 417.14 107.88399C 417.14 110.51799 415.29102 111.584984 413.01 110.26799L413.01 110.26799L377.113 89.54299C 374.832 88.22599 372.983 85.023994 372.983 82.38999C 372.985 79.756 374.834 78.689 377.115 80.006z" stroke="none" fill="#E6E6E6" fill-rule="nonzero" />
            <path d="M419.706 74.464L425.475 77.795C 425.446 77.536995 425.426 77.282 425.426 77.031L425.426 77.031L425.426 75.36C 425.426 72.386 427.514 71.18 430.09 72.667C 431.133 73.269 432.093 74.224 432.87 75.34C 433.292 71.6 436.22598 70.20699 439.79 72.265C 443.644 74.49 446.768 79.901 446.768 84.35L446.768 84.35L446.768 86.851C 446.768 88.004 446.555 88.974 446.177 89.748L446.177 89.748L450.969 92.515C 452.39798 93.34 453.556 95.346 453.556 96.996C 453.556 98.646 452.398 99.315 450.969 98.490005L450.969 98.490005L419.705 80.44C 418.276 79.615005 417.11798 77.609 417.11798 75.959C 417.119 74.308 418.277 73.639 419.706 74.464z" stroke="none" fill="#E6E6E6" fill-rule="nonzero" />
		</g>
	</g>
	<g>
		<g>
			<g>
				<g>
                    <path d="M397.368 226.232C 393.168 233.333 389.127 239.502 386.29 242.459C 380.903 244.965 368.245 248.817 363.29202 249.462C 362.41403 249.576 361.532 249.352 360.80603 248.877C 358.85904 247.601 357.35303 247.394 355.30002 246.683C 353.69302 246.127 353.01202 245.359 352.71002 245.651C 352.32202 246.026 351.89902 247.093 352.87802 248.198C 353.37003 248.75299 354.26703 249.36 355.42203 250.101C 355.42203 250.101 351.88104 251.046 348.71802 250.216C 344.43103 249.091 342.407 251.15201 345.30603 255.807C 346.34402 257.474 350.43204 260.143 358.71603 259.422C 361.10303 259.215 364.54703 259.01498 367.51804 258.381C 375.46405 256.685 384.29602 255.042 389.72604 253.42001C 391.09604 253.01102 393.54303 251.42601 395.00003 249.76501C 404.13403 239.35301 407.15903 231.93501 411.16302 225.19301L411.16302 225.19301L410.81702 214.17601C 404.344 213.975 400.882 220.289 397.368 226.232z" stroke="none" fill="#FFA8A7" fill-rule="nonzero" />
                    <path d="M411.934 213.975C 411.934 213.975 406.281 212.77301 402.03198 218.209C 397.58597 223.898 389.72498 237.561 389.72498 237.561C 389.72498 237.561 392.304 244.412 399.24298 245.53801L399.24298 245.53801L410.391 230.48001C 410.391 230.48 415.67 220.057 411.934 213.975z" stroke="none" fill="#455A64" fill-rule="nonzero" />
					<g>
                        <path d="M428.769 367.536L436.036 367.536L436.036 380.49402L428.769 380.49402z" stroke="none" fill="#FFA8A7" fill-rule="nonzero" />
                        <path d="M410.839 366.845L403.576 367.105L403.212 353.392L410.839 353.132L410.839 366.845" stroke="none" fill="#FFA8A7" fill-rule="nonzero" />
                        <path d="M437.06 255.347C 437.06 262.575 435.996 320.745 435.996 320.745C 436.165 322.82498 438.037 326.66 437.632 334.648C 437.081 345.5 436.347 374.01602 436.347 374.01602C 436.347 374.01602 432.81897 376.16302 428.25497 374.182C 428.25497 374.182 422.36298 334.221 421.06097 323.46802C 419.925 314.083 417.01398 282.94803 417.01398 282.94803L417.01398 282.94803L413.07498 319.68903C 413.07498 319.68903 414.41498 325.286 413.97598 331.71802C 413.636 336.69202 411.29898 362.59702 411.29898 362.59702C 411.29898 362.59702 407.878 365.015 402.908 363.26602C 402.908 363.26602 398.774 324.25302 398.69 319.68903C 398.594 314.48602 401.107 255.27002 401.107 255.27002L401.107 255.27002L437.06 255.347z" stroke="none" fill="#37474F" fill-rule="nonzero" />
                        <path d="M428.769 376.758L428.769 375.676C 428.074 375.991 426.458 382.412 423.574 385.151C 421.282 387.329 418.155 389.844 417.359 392.272C 416.532 394.797 421.71402 396.191 423.855 395.796C 426.34302 395.33698 430.657 393.512 431.739 391.81998C 432.82202 390.128 433.329 387.632 434.208 386.39297C 435.088 385.15298 437.116 383.76898 437.592 382.33398C 437.853 381.546 437.543 379.81897 437.17603 378.361C 436.83902 377.02298 436.47403 375.551 436.03503 375.677C 436.03403 375.84 436.03503 376.502 436.03503 376.502C 435.50702 377.11102 434.04803 377.71503 432.40204 377.781C 431.34 377.822 428.76 377.602 428.769 376.758z" stroke="none" fill="#263238" fill-rule="nonzero" />
                        <path d="M403.499 364.771C 403.121 364.785 402.814 365.339 401.982 366.27798C 400.97598 367.412 399.331 368.63498 397.707 369.482C 394.986 370.901 389.695 373.083 387.301 374.207C 385.805 374.909 385.875 376.79102 387.421 377.862C 388.96698 378.93298 392.69998 379.705 397.18298 378.66C 399.62497 378.091 402.804 375.742 404.81598 375.86902C 406.82797 375.99603 410.593 375.966 412.07797 374.89902C 413.56296 373.833 412.96896 371.55603 412.54898 369.59903C 412.09097 367.46304 411.51797 364.13303 410.839 364.27902L410.839 364.27902L410.839 365.015C 409.965 366.393 405.456 366.954 403.537 365.93903L403.537 365.93903L403.499 364.771z" stroke="none" fill="#263238" fill-rule="nonzero" />
                        <path d="M417.015 282.947C 417.015 282.947 411.20602 281.24298 406.89502 276.90298C 406.89502 276.90298 408.84802 280.711 414.65503 284.25497L414.65503 284.25497L413.41302 317.06598L417.015 282.947z" stroke="none" fill="#263238" fill-rule="nonzero" />
					</g>
					<g>
                        <path d="M432.991 215.059C 432.991 215.059 438.966 216.442 438.562 227.276L438.562 227.276L437.30502 244.534L437.34003 270.43298C 431.99603 276.48798 408.30402 276.04498 400.19302 269.948C 400.19302 269.948 401.11203 239.298 401.66003 227.504C 402.04904 219.119 403.97903 214.898 412.21902 213.974L412.21902 213.974L422.35303 214.42L432.991 215.059z" stroke="none" fill="# #0074d9" fill-rule="nonzero" />
					</g>
					<g>
                        <path d="M425.355 192.535C 425.355 198.759 420.51102 203.804 414.536 203.804C 408.561 203.804 405.02402 198.62 403.717 192.535C 401.325 181.406 408.561 181.266 414.536 181.266C 420.511 181.266 425.355 186.311 425.355 192.535z" stroke="none" fill="#263238" fill-rule="nonzero" />
						<g>
                            <path d="M430.875 197.094C 430.875 197.094 429.216 205.21399 428.55 206.54799C 427.88498 207.88199 426.509 208.26099 426.509 208.26099L426.509 208.26099L426.625 202.54898L430.875 197.094z" stroke="none" fill="#263238" fill-rule="nonzero" />
                            <path d="M428.793 185.461C 428.793 185.461 429.983 185.163 431.247 187.138C 432.33102 188.831 432.577 192.634 430.876 197.094L430.876 197.094L427.75 197.46799L428.793 185.461z" stroke="none" fill="#263238" fill-rule="nonzero" />
                            <path d="M429.943 187.105L433.776 187.176C 433.87 186.07599 433.088 185.16899 432.029 185.149C 430.971 185.13 430.037 186.005 429.943 187.105z" stroke="none" fill="#263238" fill-rule="nonzero" />
                            <path d="M430.412 186.197L433.25198 183.466C 432.551 182.654 431.347 182.60701 430.563 183.36101C 429.779 184.114 429.711 185.384 430.412 186.197z" stroke="none" fill="#263238" fill-rule="nonzero" />
                            <path d="M426.812 197.47C 427.43903 197.86 428.333 196.606 429.10602 195.763C 429.87903 194.921 432.30603 194.125 433.56503 196.888C 434.84802 199.703 432.67905 202.38 430.87503 203.27701C 427.65002 204.88 426.62503 202.54901 426.62503 202.54901L426.62503 202.54901L426.36404 215.41101C 421.81903 222.44101 411.52405 222.188 415.22504 215.07101L415.22504 215.07101L415.23505 211.15602C 415.23505 211.15602 412.13306 211.64603 410.62006 211.40302C 408.10205 210.99802 406.51807 208.92902 405.75406 206.09001C 404.52707 201.531 404.06107 197.84901 405.10205 188.88301C 406.24304 179.05501 417.21805 178.953 423.14404 182.83801C 429.072 186.724 426.812 197.47 426.812 197.47z" stroke="none" fill="#FFA8A7" fill-rule="nonzero" />
                            <path d="M413.131 187.349C 415.75302 187.087 418.345 186.554 420.97202 186.36C 421.54102 186.318 422.122 186.293 422.673 186.442C 424.686 186.98601 424.426 189.326 424.746 190.961C 425.296 193.776 425.753 198.548 426.812 198.569C 427.127 198.575 428.32602 196.504 429.10602 195.764C 429.61102 195.285 429.69702 194.25201 429.80603 193.613C 430.00604 192.446 430.11404 191.263 430.20303 190.084C 430.27902 189.086 430.37903 188.07 430.37503 187.068C 430.37003 185.944 430.39203 184.79999 430.11304 183.702C 429.85904 182.705 429.39304 181.959 428.71103 181.18199C 428.64502 181.107 428.57803 181.03299 428.51102 180.95999C 427.21802 179.566 425.56903 178.521 423.81802 177.799C 421.30502 176.763 418.58203 176.34999 415.87802 176.073C 413.174 175.796 410.44904 175.646 407.786 175.09799C 407.631 175.066 407.465 175.034 407.31702 175.09C 407.08502 175.179 406.984 175.448 406.937 175.691C 406.70203 176.92499 407.25702 178.275 408.294 178.986C 406.482 179.12999 404.402 178.18599 402.656 177.713C 402.362 177.633 402.028 177.558 401.767 177.716C 401.587 177.825 401.481 178.02501 401.417 178.225C 401.26898 178.68901 401.302 179.19 401.36798 179.673C 401.563 181.1 402.04898 182.51001 402.929 183.65001C 404.19498 185.29102 406.279 186.77101 408.33398 187.18301C 409.957 187.51 411.472 187.514 413.131 187.349z" stroke="none" fill="#263238" fill-rule="nonzero" />
                            <path d="M415.235 211.157C 415.235 211.157 420.85498 209.978 422.81998 208.89C 424.13498 208.162 425.218 206.9 425.53598 206.091C 425.53598 206.091 425.16797 207.828 423.99298 209.392C 422.55597 211.305 415.235 212.714 415.235 212.714L415.235 212.714L415.235 211.157z" stroke="none" fill="#F28F8F" fill-rule="nonzero" />
						</g>
						<g>
                            <path d="M416.586 196.007C 416.586 196.68001 417.091 197.224 417.712 197.223C 418.334 197.22101 418.838 196.67401 418.838 196.001C 418.838 195.328 418.334 194.78401 417.712 194.785C 417.091 194.787 416.586 195.334 416.586 196.007z" stroke="none" fill="#263238" fill-rule="nonzero" />
                            <path d="M418.395 191.15L420.805 192.53499C 421.16 191.814 420.909 190.91899 420.24298 190.53699C 419.577 190.155 418.75 190.429 418.395 191.15z" stroke="none" fill="#263238" fill-rule="nonzero" />
                            <path d="M415.744 204.11L413.17297 205.115C 413.42697 205.88301 414.20898 206.28 414.91898 206.002C 415.63 205.725 415.999 204.878 415.744 204.11z" stroke="none" fill="#F28F8F" fill-rule="nonzero" />
                            <path d="M406.254 192.182L408.451 190.42001C 408.003 189.76501 407.14798 189.628 406.541 190.11502C 405.935 190.601 405.806 191.527 406.254 192.182z" stroke="none" fill="#263238" fill-rule="nonzero" />
                            <path d="M407.219 195.673C 407.219 196.34601 407.723 196.89 408.345 196.888C 408.967 196.886 409.471 196.339 409.471 195.666C 409.471 194.993 408.967 194.449 408.345 194.45C 407.723 194.453 407.219 195 407.219 195.673z" stroke="none" fill="#263238" fill-rule="nonzero" />
                            <path d="M413.246 194.731L413.115 201.845L409.078 200.919L413.246 194.731" stroke="none" fill="#F28F8F" fill-rule="nonzero" />
						</g>
					</g>
				</g>
			</g>
			<g>
				<g>
                    <path d="M317.314 254.276L323.578 250.66L326.061 247.653L319.797 0L254.276 0" stroke="none" fill="# #0074d9" fill-rule="nonzero" />
                    <path d="M317.314 254.276L323.578 250.66L326.061 247.653L319.797 0L254.276 0" stroke="none" fill="none" />
				</g>
				<g>
                    <path d="M334.361 264.118L340.625 260.502L345.861 255.868L339.596 0L264.118 0" stroke="none" fill="# #0074d9" fill-rule="nonzero" />
                    <path d="M334.361 264.118L340.625 260.502L345.861 255.868L339.596 0L264.118 0" stroke="none" fill="none" />
				</g>
                <path d="M387.623 276.615C 388.99597 278.362 389.998 280.929 390.21298 283.43198C 388.839 281.685 387.838 279.118 387.623 276.615zM402.186 276.804C 400.079 262.452 392.368 248.25499 383.177 242.94998C 378.767 240.39998 374.685 240.30798 371.41602 242.21999C 370.46002 242.77498 366.91302 244.82098 365.515 245.62299C 365.402 245.68498 365.289 245.74599 365.186 245.818C 364.92902 245.96199 364.672 246.12599 364.42502 246.301C 363.95203 246.62999 363.50003 247 363.06802 247.422C 363.006 247.47299 362.94403 247.545 362.87302 247.607C 362.68802 247.79199 362.50302 247.998 362.328 248.20299C 362.112 248.44998 361.896 248.70699 361.701 248.97398C 361.28998 249.51898 360.899 250.10498 360.55 250.74199C 360.375 251.04999 360.19998 251.37898 360.03598 251.719L360.03598 251.719L308.52 221.978L302.259 225.586L302.259 229.575L302.793 229.883L303.287 230.17099L303.287 231.01399L302.25897 231.60999L302.25897 233.93298L309.82498 249.94998L317.309 254.27798L319.797 251.26599L326.397 255.21399L330.19 261.711L334.364 264.117L339.59702 259.48102L346.022 263.19202L348.181 272.09503L358.945 278.30502C 359.49002 280.58704 360.17902 282.81802 360.98102 284.99802C 361.053 285.22403 361.135 285.45 361.22803 285.69702C 364.80603 295.10403 370.50104 303.153 376.91602 306.864C 377.739 307.337 378.54 307.72803 379.332 308.026C 379.785 308.211 380.237 308.355 380.679 308.478C 381.08 308.591 381.481 308.684 381.882 308.745C 383.20798 308.981 384.49298 308.971 385.69598 308.735C 385.87097 308.694 386.046 308.65298 386.21997 308.612C 386.46698 308.561 386.71298 308.489 386.94998 308.396C 387.13498 308.324 387.31998 308.25198 387.50497 308.18C 387.69998 308.108 387.89597 308.01498 388.08096 307.913C 388.26596 307.831 388.44095 307.738 388.61597 307.63498C 388.70798 307.58398 388.80096 307.53198 388.88297 307.481C 388.92395 307.47098 388.96497 307.44 389.00696 307.409C 390.43594 306.587 393.96194 304.551 394.91797 304.00598C 399.67798 301.25098 402.76196 294.27 402.76196 284.40097C 402.761 281.893 402.566 279.344 402.186 276.804z" stroke="none" fill="# #0074d9" fill-rule="nonzero" />
                <path d="M385.786 288.721C 383.315 287.294 381.311 283.053 381.311 279.24802C 381.311 275.44302 383.315 273.515 385.786 274.94202C 388.25702 276.36902 390.26102 280.61002 390.26102 284.415C 390.26 288.22 388.257 290.148 385.786 288.721zM395.925 280.413C 393.818 266.072 386.107 251.874 376.916 246.56999C 372.65997 244.11299 368.723 243.928 365.51498 245.624C 365.40198 245.68599 365.28897 245.747 365.18597 245.819C 364.929 245.963 364.67197 246.127 364.425 246.302C 363.952 246.631 363.5 247.001 363.068 247.423C 363.00598 247.474 362.944 247.546 362.873 247.608C 362.688 247.793 362.503 247.99901 362.32797 248.204C 362.11197 248.45099 361.89597 248.708 361.70096 248.97499C 361.28995 249.51999 360.89896 250.10599 360.54996 250.743C 360.37497 251.051 360.19995 251.37999 360.03595 251.72C 359.18295 253.468 358.50394 255.503 358.05194 257.806L358.05194 257.806L302.25995 225.587L302.25995 229.576L302.79395 229.884L303.28793 230.172L303.28793 231.015L302.25992 231.611L302.25992 233.93399L309.82593 249.95099L317.30994 254.27899L319.79794 251.267L326.39795 255.215L330.19095 261.712L334.36496 264.118L339.59796 259.48203L346.02295 263.19302L348.18195 272.096L358.94595 278.306C 359.49097 280.588 360.17996 282.819 360.98196 284.999C 361.05396 285.225 361.13596 285.451 361.22897 285.698C 364.80698 295.105 370.50198 303.154 376.91696 306.865C 377.73996 307.33798 378.54095 307.729 379.33295 308.02698C 379.78595 308.21198 380.23795 308.356 380.67993 308.47897C 381.08093 308.59198 381.48193 308.68497 381.88293 308.74597C 383.20892 308.98196 384.49393 308.972 385.69693 308.73596C 385.87192 308.69498 386.04694 308.65396 386.22092 308.61298C 386.46793 308.56198 386.71393 308.49 386.95093 308.39697C 387.13593 308.32498 387.32092 308.25296 387.50592 308.18097C 387.70093 308.10898 387.8969 308.01596 388.0819 307.91397C 388.2669 307.83197 388.4419 307.73898 388.6169 307.63596C 388.70892 307.58496 388.8019 307.53296 388.8839 307.48196C 388.9249 307.47195 388.9659 307.44098 389.0079 307.40997C 393.5719 304.53198 396.5029 297.65396 396.5029 288.02097C 396.501 285.512 396.295 282.962 395.925 280.413z" stroke="none" fill="# #0074d9" fill-rule="nonzero" />
                <path d="M390.26 284.412C 390.26 288.21597 388.255 290.149 385.78802 288.72C 383.31003 287.29102 381.30603 283.055 381.30603 279.252C 381.30603 275.44904 383.31104 273.51602 385.78802 274.945C 386.446 275.325 387.07303 275.901 387.618 276.621C 387.834 279.119 388.841 281.689 390.209 283.437C 390.25 283.764 390.26 284.093 390.26 284.412z" stroke="none" fill="#000000" fill-rule="nonzero" fill-opacity="0.4" />
                <path d="M402.761 284.402C 402.761 294.271 399.67697 301.252 394.917 304.00702C 393.961 304.55203 390.435 306.587 389.00598 307.41003C 393.56998 304.53204 396.50098 297.65402 396.50098 288.02103C 396.50098 285.51303 396.29498 282.963 395.925 280.41403C 393.818 266.07303 386.107 251.87503 376.916 246.57103C 372.65997 244.11403 368.723 243.92903 365.51498 245.62503C 366.913 244.82303 370.46 242.77702 371.416 242.22203C 374.685 240.31003 378.767 240.40202 383.17697 242.95203C 392.36798 248.25702 400.07797 262.45404 402.18597 276.80603C 402.566 279.344 402.761 281.893 402.761 284.402z" stroke="none" fill="#FFFFFF" fill-rule="nonzero" fill-opacity="0.4" />
				<g>
                    <path d="M396.501 288.02C 396.501 297.65298 393.571 304.53098 389.006 307.409C 390.435 306.587 393.961 304.551 394.91702 304.00598C 399.67703 301.25098 402.76102 294.27 402.76102 284.40097C 402.76102 284.03696 402.74802 283.66998 402.74002 283.304C 400.58902 284.546 398.41403 285.801 396.47803 286.91898C 396.487 287.287 396.501 287.655 396.501 288.02z" stroke="none" fill="# #0074d9" fill-rule="nonzero" />
                    <path d="M396.501 288.02C 396.501 297.65298 393.571 304.53098 389.006 307.409C 390.435 306.587 393.961 304.551 394.91702 304.00598C 399.67703 301.25098 402.76102 294.27 402.76102 284.40097C 402.76102 284.03696 402.74802 283.66998 402.74002 283.304C 400.58902 284.546 398.41403 285.801 396.47803 286.91898C 396.487 287.287 396.501 287.655 396.501 288.02z" stroke="none" fill="#000000" fill-rule="nonzero" fill-opacity="0.09803922" />
				</g>
				<g>
                    <path d="M358.278 261.918L358.278 263.954L302.26 231.611L303.288 0L230.172 358.278L261.918 0" stroke="none" fill="#000000" fill-rule="nonzero" fill-opacity="0.14901961" />
                    <path d="M358.278 262.761L358.278 263.954L302.26 231.611L303.288 0L231.005 358.278L262.761 0" stroke="none" fill="#000000" fill-rule="nonzero" fill-opacity="0.14901961" />
				</g>
                <path transform="matrix(0.956 -0.2934 0.2934 0.956 -64.6042 122.7807)"  d="M362.12402 276.71C 362.12402 261.42386 368.7462 249.032 376.91504 249.032C 385.0839 249.032 391.70605 261.42386 391.70605 276.71C 391.70605 291.99612 385.0839 304.388 376.91504 304.388C 368.7462 304.388 362.12402 291.99612 362.12402 276.71" stroke="#000000" stroke-width="1" fill="none" />
                <path d="M360.036 251.72C 359.183 253.468 358.504 255.503 358.052 257.806L358.052 257.806L302.26 225.587L308.521 221.979L360.036 251.72z" stroke="none" fill="#FFFFFF" fill-rule="nonzero" fill-opacity="0.4" />
			</g>
			<g>
                <path d="M432.506 254.853C 435.432 249.31999 438.767 236.9 440.428 230.63199C 442.78702 221.72899 438.969 216.12698 434.635 215.902C 431.91702 216.316 422.993 248.79099 422.993 248.79099C 422.004 249.58199 408.42102 256.465 404.057 258.19498C 403.284 258.50198 402.423 258.48898 401.64102 258.20398C 399.545 257.43896 398.118 257.58398 396.06702 257.378C 394.46103 257.21698 393.648 256.646 393.445 256.99C 393.185 257.43198 393.064 258.535 394.233 259.357C 394.821 259.771 395.792 260.13998 397.031 260.57898C 397.031 260.57898 394.711 261.38297 391.616 261.31497C 387.421 261.222 385.911 263.04498 389.165 267.29697C 391.204 269.96097 394.482 270.80096 401.86502 268.24796C 403.99203 267.51196 406.87402 266.08197 409.55603 265.10794C 415.10202 263.09293 416.52603 262.87494 420.78302 261.44196C 426.926 259.373 431.207 257.308 432.506 254.853z" stroke="none" fill="#FFA8A7" fill-rule="nonzero" />
                <path d="M432.991 215.059C 435.543 215.408 438.017 215.985 439.501 218.04701C 440.98502 220.10901 442.22202 223.01701 440.738 231.005C 439.254 238.99301 436.20102 247.479 436.20102 247.479C 436.20102 247.479 430.265 250.016 423.95 243.58L423.95 243.58L428.286 226.801C 428.285 226.801 429.028 215.901 432.991 215.059z" stroke="none" fill="#455A64" fill-rule="nonzero" />
			</g>
		</g>
	</g>
</g>
</svg>