<svg width="720" height="720" viewBox="0 0 720 720"
    xmlns="http://www.w3.org/2000/svg">
    <path d="M720,720C612.5,721.8333333333334,108.5,732.6666666666666,0,720C-108.5,707.3333333333334,45.33333333333333,656.1666666666666,69,644C92.66666666666667,631.8333333333334,118,634.5,142,647C166,659.5,189,717.8333333333334,213,719C237,720.1666666666666,261.8333333333333,662.3333333333334,286,654C310.1666666666667,645.6666666666666,334.1666666666667,663.3333333333334,358,669C381.8333333333333,674.6666666666666,405,693.3333333333334,429,688C453,682.6666666666666,478.1666666666667,637.6666666666666,502,637C525.8333333333334,636.3333333333334,548.1666666666666,672,572,684C595.8333333333334,696,620.3333333333334,703,645,709C669.6666666666666,715,827.5,718.1666666666666,720,720C612.5,721.8333333333334,108.5,732.6666666666666,0,720" fill="#2ec27e" />
</svg>